<?xml version="1.0" encoding="UTF-8" standalone="no"?><svg xmlns="http://www.w3.org/2000/svg" xmlns:xlink="http://www.w3.org/1999/xlink" fill="#ffffff" height="2404" overflow="hidden" preserveAspectRatio="xMidYMid meet" version="1" viewBox="0.0 0.0 1441.0 2404.0" width="1441" zoomAndPan="magnify"><defs><clipPath id="a"><path d="M1875 1908H3316V4312H1875z"/></clipPath></defs><g clip-path="url(#a)" id="change1_1" transform="translate(-1875 -1908)"><path d="M2595.5 4022.65C2532.46 4022.65 2481.35 4073.76 2481.35 4136.8 2481.35 4199.84 2532.46 4250.95 2595.5 4250.95 2658.54 4250.95 2709.65 4199.84 2709.65 4136.8 2709.65 4073.76 2658.54 4022.65 2595.5 4022.65ZM2378.26 3517.18 2812.74 3517.18C2866.11 3517.18 2909.38 3560.45 2909.38 3613.82 2909.38 3667.19 2866.11 3710.45 2812.74 3710.45L2378.26 3710.45C2324.89 3710.45 2281.62 3667.19 2281.62 3613.82 2281.62 3560.45 2324.89 3517.18 2378.26 3517.18ZM2177.62 3226.96 3013.38 3226.96C3015.54 3226.96 3017.3 3228.71 3017.3 3230.88L3017.3 3261.03C3017.3 3263.19 3015.54 3264.95 3013.38 3264.95L2177.62 3264.95C2175.45 3264.95 2173.7 3263.19 2173.7 3261.03L2173.7 3230.88C2173.7 3228.71 2175.45 3226.96 2177.62 3226.96ZM2664.07 2807.38 2664.07 3168.49 2776.67 3168.49 2776.67 2807.38ZM2414.33 2807.38 2414.33 3168.49 2526.93 3168.49 2526.93 2807.38ZM2210.4 2776.58 2980.6 2776.58C2982.35 2776.58 2983.78 2778 2983.78 2779.76L2983.78 2804.2C2983.78 2805.96 2982.35 2807.38 2980.6 2807.38L2913.8 2807.38 2913.8 3168.49 2980.25 3168.49C2982.2 3168.49 2983.78 3170.07 2983.78 3172.01L2983.78 3199.1C2983.78 3201.05 2982.2 3202.63 2980.25 3202.63L2210.75 3202.63C2208.8 3202.63 2207.22 3201.05 2207.22 3199.1L2207.22 3172.01C2207.22 3170.07 2208.8 3168.49 2210.75 3168.49L2277.2 3168.49 2277.2 2807.38 2210.4 2807.38C2208.65 2807.38 2207.22 2805.96 2207.22 2804.2L2207.22 2779.76C2207.22 2778 2208.65 2776.58 2210.4 2776.58ZM2415.3 2646.13 2436.88 2646.13C2442.2 2646.13 2446.42 2647.46 2449.55 2650.11 2452.67 2652.77 2454.24 2656.45 2454.24 2661.14 2454.24 2665.73 2452.75 2669.27 2449.78 2671.77 2446.81 2674.27 2442.67 2675.53 2437.35 2675.53L2415.3 2675.53ZM2539.26 2609.38 2555.06 2655.04 2523.47 2655.04ZM2415.3 2601.87 2435.32 2601.87C2440.53 2601.87 2444.54 2603.07 2447.36 2605.47 2450.17 2607.87 2451.58 2611.26 2451.58 2615.64 2451.58 2620.01 2450.17 2623.38 2447.36 2625.72 2444.54 2628.07 2440.53 2629.24 2435.32 2629.24L2415.3 2629.24ZM2721.14 2584.2 2721.14 2693.35 2743.03 2693.35 2743.03 2644.72 2782.75 2693.35 2810.43 2693.35 2764.14 2638.31 2809.18 2584.2 2782.75 2584.2 2743.03 2633.15 2743.03 2584.2ZM2393.41 2584.2 2393.41 2693.35 2440.48 2693.35C2447.88 2693.35 2454.29 2692.1 2459.71 2689.6 2465.13 2687.1 2469.27 2683.63 2472.14 2679.2 2475.01 2674.77 2476.44 2669.64 2476.44 2663.8 2476.44 2657.33 2474.46 2651.6 2470.5 2646.6 2466.54 2641.59 2461.48 2638.52 2455.33 2637.37 2460.96 2635.6 2465.47 2632.58 2468.86 2628.3 2472.25 2624.03 2473.94 2618.71 2473.94 2612.35 2473.94 2606.93 2472.56 2602.08 2469.8 2597.81 2467.03 2593.53 2462.97 2590.2 2457.6 2587.8 2452.23 2585.4 2445.84 2584.2 2438.44 2584.2ZM2606.14 2584.05 2606.14 2693.35 2628.03 2693.35 2628.03 2618.45 2677.6 2693.35 2699.49 2693.35 2699.49 2584.05 2677.6 2584.05 2677.6 2659.11 2628.03 2584.05ZM2526.6 2584.05 2487.35 2693.35 2510.34 2693.35 2517.53 2672.55 2561 2672.55 2568.19 2693.35 2591.34 2693.35 2552.09 2584.05ZM2594.37 2404.99 3017.02 2673.73 3017.02 2751.92 2173.98 2751.92 2173.98 2673.73ZM2023.02 2160.8 2023.02 3952.3 3167.98 3952.3 3167.98 2160.8ZM2610.36 1984.59C2586.29 1984.59 2566.78 2004.11 2566.78 2028.18 2566.78 2052.25 2586.29 2071.76 2610.36 2071.76L2639.42 2071.76C2663.49 2071.76 2683 2052.25 2683 2028.18 2683 2004.11 2663.49 1984.59 2639.42 1984.59ZM2087.37 1981.69C2063.3 1981.69 2043.78 2001.2 2043.78 2025.27 2043.78 2049.34 2063.3 2068.85 2087.37 2068.85L2465.08 2068.85C2489.15 2068.85 2508.67 2049.34 2508.67 2025.27 2508.67 2001.2 2489.15 1981.69 2465.08 1981.69ZM2032.82 1908 3158.18 1908C3245.34 1908 3316 1978.66 3316 2065.82L3316 4154.18C3316 4241.34 3245.34 4312 3158.18 4312L2032.82 4312C1945.66 4312 1875 4241.34 1875 4154.18L1875 2065.82C1875 1978.66 1945.66 1908 2032.82 1908Z" fill-rule="evenodd"/></g></svg>