<?xml version="1.0" encoding="UTF-8" standalone="no"?><svg xmlns="http://www.w3.org/2000/svg" xmlns:xlink="http://www.w3.org/1999/xlink" data-name="Layer 1" fill="#ffffff" height="96.4" preserveAspectRatio="xMidYMid meet" version="1" viewBox="6.6 6.6 96.4 96.4" width="96.4" zoomAndPan="magnify"><g id="change1_1"><path d="M54.982,79.268A24.268,24.268,0,1,1,79.256,55.005,24.289,24.289,0,0,1,54.982,79.268Zm0-46.536A22.268,22.268,0,1,0,77.256,55.005,22.292,22.292,0,0,0,54.982,32.732Z" fill="inherit"/></g><g id="change1_2"><path d="M54.982,72.809A17.809,17.809,0,1,1,72.8,55.005,17.823,17.823,0,0,1,54.982,72.809Zm0-33.618A15.809,15.809,0,1,0,70.8,55.005,15.826,15.826,0,0,0,54.982,39.191Z" fill="inherit"/></g><g id="change1_3"><path d="M60.764,61.459a4.934,4.934,0,0,1-2.013,1.7,7.875,7.875,0,0,1-3.019.732v1.764a.716.716,0,0,1-.21.534.834.834,0,0,1-1.094.013.722.722,0,0,1-.21-.547V63.893A15.222,15.222,0,0,1,49.2,62.726a1.115,1.115,0,0,1-.5-.409,1.063,1.063,0,0,1,.087-1.342.949.949,0,0,1,.732-.311,1.148,1.148,0,0,1,.473.1,11.631,11.631,0,0,0,4.223.994V56.043a18.639,18.639,0,0,1-2.845-.968A5.135,5.135,0,0,1,49.449,53.6a3.735,3.735,0,0,1-.771-2.422,4.68,4.68,0,0,1,.633-2.385A4.982,4.982,0,0,1,51.2,46.976a7.211,7.211,0,0,1,3.018-.87V44.367a.77.77,0,0,1,.21-.546.705.705,0,0,1,.536-.224.761.761,0,0,1,.768.77v1.714a13.7,13.7,0,0,1,4.325.82.968.968,0,0,1,.7.994,1.087,1.087,0,0,1-.273.72.9.9,0,0,1-.721.323,1.135,1.135,0,0,1-.4-.1,12.269,12.269,0,0,0-3.629-.671v5.913A18.938,18.938,0,0,1,58.7,55a4.986,4.986,0,0,1,1.975,1.478,4,4,0,0,1,.8,2.6A4.23,4.23,0,0,1,60.764,61.459Zm-8.992-8.77a7.5,7.5,0,0,0,2.446,1.019V48.242a4.809,4.809,0,0,0-2.386.907A2.25,2.25,0,0,0,50.939,51,1.952,1.952,0,0,0,51.772,52.689Zm7.464,6.236a1.669,1.669,0,0,0-.882-1.5,10.594,10.594,0,0,0-2.622-1.006v5.342Q59.238,61.509,59.236,58.925Z" fill="inherit"/></g><g id="change1_4"><path d="M35.5,43.336H26.8a2.391,2.391,0,0,1-2.389-2.389V35.405a.389.389,0,0,0-.389-.388H15.5a1,1,0,0,1,0-2h8.521a2.391,2.391,0,0,1,2.389,2.388v5.542a.39.39,0,0,0,.389.389H35.5a1,1,0,0,1,0,2Z" fill="inherit"/></g><g id="change1_5"><path d="M11.752,38.769A4.752,4.752,0,1,1,16.5,34.017,4.758,4.758,0,0,1,11.752,38.769Zm0-7.5A2.752,2.752,0,1,0,14.5,34.017,2.754,2.754,0,0,0,11.752,31.266Z" fill="inherit"/></g><g id="change1_6"><path d="M24.024,76.982H15.5a1,1,0,0,1,0-2h8.521a.389.389,0,0,0,.389-.388V69.052A2.391,2.391,0,0,1,26.8,66.663H35.5a1,1,0,0,1,0,2H26.8a.39.39,0,0,0-.389.389v5.542A2.391,2.391,0,0,1,24.024,76.982Z" fill="inherit"/></g><g id="change1_7"><path d="M11.752,80.734A4.752,4.752,0,1,1,16.5,75.982,4.757,4.757,0,0,1,11.752,80.734Zm0-7.5A2.752,2.752,0,1,0,14.5,75.982,2.755,2.755,0,0,0,11.752,73.231Z" fill="inherit"/></g><g id="change1_8"><path d="M11.752,59.751A4.752,4.752,0,1,1,16.5,55,4.757,4.757,0,0,1,11.752,59.751Zm0-7.5A2.752,2.752,0,1,0,14.5,55,2.754,2.754,0,0,0,11.752,52.248Z" fill="inherit"/></g><g id="change1_9"><path d="M31.721,56.005H15.5a1,1,0,0,1,0-2H31.721a1,1,0,0,1,0,2Z" fill="inherit"/></g><g id="change1_10"><path d="M83.2,43.336H74.5a1,1,0,0,1,0-2H83.2a.39.39,0,0,0,.389-.389V35.405a2.391,2.391,0,0,1,2.389-2.388H94.5a1,1,0,0,1,0,2h-8.52a.389.389,0,0,0-.389.388v5.542A2.391,2.391,0,0,1,83.2,43.336Z" fill="inherit"/></g><g id="change1_11"><path d="M98.249,38.769A4.752,4.752,0,1,1,103,34.017,4.758,4.758,0,0,1,98.249,38.769Zm0-7.5A2.752,2.752,0,1,0,101,34.017,2.754,2.754,0,0,0,98.249,31.266Z" fill="inherit"/></g><g id="change1_12"><path d="M94.5,76.982h-8.52a2.391,2.391,0,0,1-2.389-2.388V69.052a.39.39,0,0,0-.389-.389H74.5a1,1,0,0,1,0-2H83.2a2.391,2.391,0,0,1,2.389,2.389v5.542a.389.389,0,0,0,.389.388H94.5a1,1,0,0,1,0,2Z" fill="inherit"/></g><g id="change1_13"><path d="M98.249,80.734A4.752,4.752,0,1,1,103,75.982,4.757,4.757,0,0,1,98.249,80.734Zm0-7.5A2.752,2.752,0,1,0,101,75.982,2.755,2.755,0,0,0,98.249,73.231Z" fill="inherit"/></g><g id="change1_14"><path d="M98.249,59.751A4.752,4.752,0,1,1,103,55,4.757,4.757,0,0,1,98.249,59.751Zm0-7.5A2.752,2.752,0,1,0,101,55,2.754,2.754,0,0,0,98.249,52.248Z" fill="inherit"/></g><g id="change1_15"><path d="M94.5,56.005H78.279a1,1,0,0,1,0-2H94.5a1,1,0,0,1,0,2Z" fill="inherit"/></g><g id="change1_16"><path d="M67.664,36.5a1,1,0,0,1-1-1V26.8a2.391,2.391,0,0,1,2.389-2.389H74.6a.389.389,0,0,0,.388-.389V15.5a1,1,0,0,1,2,0v8.52A2.391,2.391,0,0,1,74.6,26.412H69.053a.39.39,0,0,0-.389.389v8.7A1,1,0,0,1,67.664,36.5Z" fill="inherit"/></g><g id="change1_17"><path d="M75.983,16.5a4.752,4.752,0,1,1,4.751-4.752A4.758,4.758,0,0,1,75.983,16.5Zm0-7.5a2.752,2.752,0,1,0,2.751,2.751A2.755,2.755,0,0,0,75.983,9Z" fill="inherit"/></g><g id="change1_18"><path d="M42.337,36.5a1,1,0,0,1-1-1V26.8a.39.39,0,0,0-.389-.389H35.406a2.391,2.391,0,0,1-2.388-2.389V15.5a1,1,0,0,1,2,0v8.52a.389.389,0,0,0,.388.389h5.542A2.391,2.391,0,0,1,43.337,26.8v8.7A1,1,0,0,1,42.337,36.5Z" fill="inherit"/></g><g id="change1_19"><path d="M34.018,16.5a4.752,4.752,0,1,1,4.751-4.752A4.757,4.757,0,0,1,34.018,16.5Zm0-7.5a2.752,2.752,0,1,0,2.751,2.751A2.754,2.754,0,0,0,34.018,9Z" fill="inherit"/></g><g id="change1_20"><path d="M55,16.5a4.752,4.752,0,1,1,4.752-4.752A4.757,4.757,0,0,1,55,16.5ZM55,9a2.752,2.752,0,1,0,2.752,2.751A2.754,2.754,0,0,0,55,9Z" fill="inherit"/></g><g id="change1_21"><path d="M55,32.721a1,1,0,0,1-1-1V15.5a1,1,0,1,1,2,0V31.721A1,1,0,0,1,55,32.721Z" fill="inherit"/></g><g id="change1_22"><path d="M75.983,95.5a1,1,0,0,1-1-1v-8.52a.389.389,0,0,0-.388-.389H69.053A2.391,2.391,0,0,1,66.664,83.2V74.5a1,1,0,0,1,2,0V83.2a.39.39,0,0,0,.389.389H74.6a2.391,2.391,0,0,1,2.388,2.389V94.5A1,1,0,0,1,75.983,95.5Z" fill="inherit"/></g><g id="change1_23"><path d="M75.983,103a4.752,4.752,0,1,1,4.751-4.752A4.758,4.758,0,0,1,75.983,103Zm0-7.5a2.752,2.752,0,1,0,2.751,2.751A2.755,2.755,0,0,0,75.983,95.5Z" fill="inherit"/></g><g id="change1_24"><path d="M34.018,95.5a1,1,0,0,1-1-1v-8.52a2.391,2.391,0,0,1,2.388-2.389h5.542a.39.39,0,0,0,.389-.389V74.5a1,1,0,0,1,2,0V83.2a2.391,2.391,0,0,1-2.389,2.389H35.406a.389.389,0,0,0-.388.389V94.5A1,1,0,0,1,34.018,95.5Z" fill="inherit"/></g><g id="change1_25"><path d="M34.018,103a4.752,4.752,0,1,1,4.751-4.752A4.757,4.757,0,0,1,34.018,103Zm0-7.5a2.752,2.752,0,1,0,2.751,2.751A2.754,2.754,0,0,0,34.018,95.5Z" fill="inherit"/></g><g id="change1_26"><path d="M55,103a4.752,4.752,0,1,1,4.752-4.752A4.757,4.757,0,0,1,55,103Zm0-7.5a2.752,2.752,0,1,0,2.752,2.751A2.754,2.754,0,0,0,55,95.5Z" fill="inherit"/></g><g id="change1_27"><path d="M55,95.5a1,1,0,0,1-1-1V78.279a1,1,0,0,1,2,0V94.5A1,1,0,0,1,55,95.5Z" fill="inherit"/></g></svg>