<?xml version="1.0" encoding="UTF-8" standalone="no"?><svg xmlns="http://www.w3.org/2000/svg" xmlns:xlink="http://www.w3.org/1999/xlink" fill="#ffffff" height="494" preserveAspectRatio="xMidYMid meet" version="1" viewBox="9.0 9.0 494.0 494.0" width="494" zoomAndPan="magnify"><g id="change1_1"><path d="M466,256.601c3.866,0,7-3.134,7-7v-22.979h10.317c10.854,0,19.683-8.83,19.683-19.683v-24.705 c0-10.854-8.829-19.683-19.683-19.683h-33.692L263,81.676v-14.48h62.99c3.866,0,7-3.134,7-7V16c0-3.866-3.134-7-7-7h-69.991 c-1.856,0-3.637,0.738-4.949,2.05c-1.313,1.313-2.051,3.093-2.051,4.95L249,81.677L62.375,162.551H28.683 C17.829,162.551,9,171.38,9,182.234v24.705c0,10.854,8.829,19.683,19.683,19.683H39v22.979c0,3.866,3.134,7,7,7h9.357v152.008H46 c-3.866,0-7,3.134-7,7v22.98h-8.366C18.705,438.589,9,448.294,9,460.223v21.143C9,493.295,18.705,503,30.634,503h450.732 c11.929,0,21.634-9.705,21.634-21.634v-21.143c0-11.929-9.705-21.634-21.634-21.634H473v-22.98c0-3.866-3.134-7-7-7h-9.357V256.601 H466z M459,242.601h-56.536v-15.979H459V242.601z M395.464,408.609c-3.866,0-7,3.134-7,7v22.98h-31.952v-22.98c0-3.866-3.134-7-7-7 h-9.357V256.601h9.357c3.866,0,7-3.134,7-7v-22.979h31.952v22.979c0,3.866,3.134,7,7,7h9.357v152.008H395.464z M116.536,408.609 h-9.357V256.601h9.357c3.866,0,7-3.134,7-7v-22.979h31.952v22.979c0,3.866,3.134,7,7,7h9.357v152.008h-9.357c-3.866,0-7,3.134-7,7 v22.98h-31.952v-22.98C123.536,411.743,120.402,408.609,116.536,408.609z M185.846,408.609V256.601h23.82v152.008H185.846z M169.488,242.601v-15.979h56.536v15.979H169.488z M169.488,422.609h56.536v15.98h-56.536V422.609z M233.024,408.609h-9.358V256.601 h9.358c3.866,0,7-3.134,7-7v-22.979h31.951v22.979c0,3.866,3.134,7,7,7h9.357v152.008h-9.357c-3.866,0-7,3.134-7,7v22.98h-31.951 v-22.98C240.024,411.743,236.891,408.609,233.024,408.609z M302.333,408.609V256.601h23.821v152.008H302.333z M285.976,242.601 v-15.979h56.536v15.979H285.976z M285.976,422.609h56.536v15.98h-56.536V422.609z M262.999,23h55.991v30.196h-55.991V23z M256,93.901l158.416,68.65H97.584L256,93.901z M23,206.938v-24.705c0-3.134,2.549-5.683,5.683-5.683h454.635 c3.134,0,5.683,2.549,5.683,5.683v24.705c0,3.134-2.549,5.683-5.683,5.683H28.683C25.549,212.622,23,210.072,23,206.938z M53,226.622h56.536v15.979H53V226.622z M69.357,256.601h23.821v152.008H69.357V256.601z M53,422.609h56.536v15.98H53V422.609z M489,460.223v21.143c0,4.209-3.425,7.634-7.634,7.634H30.634c-4.209,0-7.634-3.425-7.634-7.634v-21.143 c0-4.209,3.425-7.634,7.634-7.634h450.732C485.575,452.589,489,456.013,489,460.223z M459,438.589h-56.536v-15.98H459V438.589z M442.643,408.609h-23.821V256.601h23.821V408.609z"/></g></svg>