<?xml version="1.0" encoding="UTF-8" standalone="no"?><svg xmlns="http://www.w3.org/2000/svg" xmlns:xlink="http://www.w3.org/1999/xlink" fill="#ffffff" height="487" preserveAspectRatio="xMidYMid meet" version="1" viewBox="23.8 12.5 463.5 487.0" width="463.5" zoomAndPan="magnify"><g id="change1_1"><path d="M386.08,226.07h-44.62v-44.62c0-3.99-3.23-7.22-7.22-7.22h-31.31c-3.99,0-7.22,3.23-7.22,7.22v44.62H251.1 c-3.98,0-7.22,3.23-7.22,7.22v31.31c0,3.99,3.23,7.22,7.22,7.22h44.62v44.62c0,3.98,3.23,7.22,7.22,7.22h31.31 c3.99,0,7.22-3.23,7.22-7.22v-44.62h44.62c3.98,0,7.22-3.23,7.22-7.22v-31.31C393.29,229.3,390.06,226.07,386.08,226.07z"/><path d="M78.7,371.74c1.93,0,3.5-1.57,3.5-3.5V60.66c0-22.7,18.47-41.16,41.16-41.16h17.7l7.49,22.47 c1.91,5.72,7.26,9.57,13.28,9.57h73.49c6.02,0,11.37-3.85,13.28-9.57l7.49-22.47h17.7c22.7,0,41.16,18.47,41.16,41.16v33.36 c0,1.93,1.57,3.5,3.5,3.5s3.5-1.57,3.5-3.5V60.66c0-26.56-21.61-48.16-48.16-48.16H123.36c-26.56,0-48.16,21.61-48.16,48.16v307.58 C75.2,370.17,76.77,371.74,78.7,371.74z"/><path d="M427.5,133.14l-105.25-21.54c-2.43-0.49-4.89-0.5-7.31,0l-105.25,21.53c-8.45,1.73-14.59,9.25-14.59,17.88V252.3 c0,37.55,11.31,73.71,32.7,104.57s51.28,54.14,86.44,67.32c0.25,0.09,0.5,0.17,0.75,0.24v26.91c0,22.7-18.47,41.16-41.16,41.16 H123.36c-22.7,0-41.16-18.47-41.16-41.16v-55.88c0-1.93-1.57-3.5-3.5-3.5s-3.5,1.57-3.5,3.5v55.88c0,26.56,21.61,48.16,48.16,48.16 h150.45c26.56,0,48.16-21.61,48.16-48.16V424.5c0.33-0.09,0.66-0.2,0.98-0.32c35.16-13.18,65.05-36.46,86.44-67.32 c21.39-30.86,32.69-67.02,32.69-104.57V151.02C442.09,142.39,435.95,134.88,427.5,133.14z M435.09,252.3 c0,36.12-10.87,70.9-31.45,100.58c-20.57,29.68-49.33,52.08-83.14,64.75c-1.23,0.46-2.59,0.46-3.82,0 c-33.82-12.68-62.57-35.07-83.14-64.75c-20.57-29.68-31.45-64.46-31.45-100.58V151.02c0-5.32,3.78-9.95,8.99-11.02l105.25-21.53 c0.75-0.15,1.5-0.23,2.26-0.23c0.75,0,1.51,0.08,2.25,0.23L426.09,140c5.21,1.07,8.99,5.7,8.99,11.02V252.3z"/><path d="M49.54,221.92c0.5,0.25,1.03,0.36,1.55,0.36c1.29,0,2.53-0.71,3.14-1.95c0.86-1.73,0.15-3.83-1.58-4.69l-23.33-11.56 c-1.74-0.86-3.83-0.15-4.69,1.58c-0.86,1.73-0.15,3.83,1.58,4.69L49.54,221.92z"/><path d="M51,294.91l-23.38,11.46c-1.74,0.85-2.45,2.95-1.6,4.68c0.61,1.24,1.85,1.96,3.15,1.96c0.52,0,1.04-0.12,1.54-0.36 l23.38-11.46c1.74-0.85,2.45-2.95,1.6-4.68C54.83,294.78,52.73,294.06,51,294.91z"/><path d="M486.27,134.33c-0.96-1.68-3.1-2.25-4.78-1.29l-22.57,12.98c-1.68,0.96-2.25,3.1-1.29,4.78c0.65,1.13,1.83,1.76,3.04,1.76 c0.59,0,1.19-0.15,1.74-0.47l22.57-12.98C486.65,138.14,487.23,136,486.27,134.33z"/><path d="M393.48,109.7c0.16,0.02,0.31,0.03,0.47,0.03c1.73,0,3.23-1.28,3.46-3.04l3.46-25.81c0.26-1.92-1.09-3.68-3-3.93 c-1.91-0.26-3.68,1.09-3.93,3l-3.46,25.81C390.22,107.68,391.56,109.44,393.48,109.7z"/></g></svg>