<?xml version="1.0" encoding="UTF-8" standalone="no"?><svg xmlns="http://www.w3.org/2000/svg" xmlns:xlink="http://www.w3.org/1999/xlink" fill="#ffffff" height="496.8" preserveAspectRatio="xMidYMid meet" version="1" viewBox="-1.7 -0.8 409.2 496.8" width="409.2" zoomAndPan="magnify"><defs><clipPath id="a"><path d="M 335 5 L 407.550781 5 L 407.550781 293 L 335 293 Z M 335 5"/></clipPath></defs><g><g id="change1_2"><path d="M 235.078125 412.746094 L 275.675781 395.46875 L 291.8125 445.535156 Z M 115.535156 446.160156 L 138.339844 375.40625 L 199.171875 410.5625 Z M 203.773438 182.640625 C 204.871094 182.640625 205.953125 182.589844 207.027344 182.492188 L 224.445312 236.535156 L 174.371094 263.621094 L 200.523438 182.492188 C 201.59375 182.589844 202.679688 182.640625 203.773438 182.640625 Z M 174.605469 281.765625 L 229.460938 252.097656 L 264.121094 359.621094 Z M 164.492188 294.273438 L 265.660156 382.261719 L 217.671875 402.6875 L 143.386719 359.757812 Z M 241.839844 238.109375 C 241.839844 238.105469 241.839844 238.101562 241.835938 238.097656 L 222.324219 177.566406 C 233.03125 171.21875 240.207031 159.550781 240.207031 146.207031 C 240.207031 126.085938 223.894531 109.773438 203.773438 109.773438 C 183.652344 109.773438 167.339844 126.085938 167.339844 146.207031 C 167.339844 159.550781 174.519531 171.21875 185.222656 177.566406 L 126.128906 360.898438 C 126.117188 360.933594 126.105469 360.96875 126.09375 361.003906 L 86.289062 484.496094 C 84.929688 488.71875 87.25 493.25 91.472656 494.609375 C 95.699219 495.972656 100.226562 493.652344 101.589844 489.425781 L 109.007812 466.40625 L 216.578125 420.621094 L 299.164062 468.351562 L 305.960938 489.425781 C 307.058594 492.832031 310.210938 495 313.605469 495 C 314.425781 495 315.253906 494.875 316.074219 494.609375 C 320.300781 493.25 322.617188 488.71875 321.257812 484.496094 L 241.839844 238.109375"/></g><g id="change1_3"><path d="M 115.960938 212.636719 C 117.527344 214.203125 119.585938 214.988281 121.640625 214.988281 C 123.699219 214.988281 125.757812 214.203125 127.324219 212.636719 C 130.464844 209.496094 130.464844 204.40625 127.324219 201.269531 C 111.828125 185.769531 103.292969 165.183594 103.292969 143.300781 C 103.292969 121.414062 111.828125 100.828125 127.324219 85.328125 C 130.464844 82.191406 130.464844 77.101562 127.324219 73.964844 C 124.1875 70.824219 119.097656 70.824219 115.960938 73.964844 C 97.425781 92.496094 87.21875 117.121094 87.21875 143.300781 C 87.21875 169.476562 97.425781 194.101562 115.960938 212.636719"/></g><g id="change1_4"><path d="M 96.113281 246.601562 C 99.25 243.464844 99.25 238.375 96.113281 235.238281 C 71.535156 210.660156 57.996094 178.007812 57.996094 143.300781 C 57.996094 108.589844 71.535156 75.9375 96.113281 51.359375 C 99.25 48.222656 99.25 43.132812 96.113281 39.996094 C 92.972656 36.855469 87.886719 36.855469 84.746094 39.996094 C 70.792969 53.949219 59.988281 70.214844 52.632812 88.339844 C 45.527344 105.84375 41.925781 124.335938 41.925781 143.300781 C 41.925781 162.265625 45.527344 180.757812 52.632812 198.261719 C 59.988281 216.382812 70.792969 232.648438 84.746094 246.601562 C 86.316406 248.171875 88.375 248.957031 90.429688 248.957031 C 92.488281 248.957031 94.542969 248.171875 96.113281 246.601562"/></g><g id="change1_5"><path d="M 69.792969 13.71875 C 72.929688 10.582031 72.929688 5.492188 69.792969 2.355469 C 66.65625 -0.785156 61.566406 -0.785156 58.425781 2.355469 C 39.386719 21.394531 24.644531 43.585938 14.609375 68.3125 C 4.914062 92.191406 0 117.421875 0 143.300781 C 0 169.175781 4.914062 194.40625 14.609375 218.285156 C 24.644531 243.011719 39.386719 265.203125 58.425781 284.242188 C 59.996094 285.8125 62.054688 286.597656 64.109375 286.597656 C 66.167969 286.597656 68.222656 285.8125 69.792969 284.242188 C 72.929688 281.105469 72.929688 276.015625 69.792969 272.878906 C -1.65625 201.429688 -1.65625 85.171875 69.792969 13.71875"/></g><g id="change1_6"><path d="M 280.222656 218.449219 C 281.792969 220.019531 283.847656 220.804688 285.90625 220.804688 C 287.964844 220.804688 290.019531 220.019531 291.589844 218.449219 C 310.121094 199.914062 320.328125 175.289062 320.328125 149.113281 C 320.328125 122.9375 310.121094 98.3125 291.589844 79.777344 C 288.449219 76.640625 283.363281 76.640625 280.222656 79.777344 C 277.085938 82.914062 277.085938 88.003906 280.222656 91.144531 C 312.1875 123.109375 312.1875 175.117188 280.222656 207.085938 C 277.085938 210.222656 277.085938 215.3125 280.222656 218.449219"/></g><g id="change1_7"><path d="M 365.625 149.113281 C 365.625 130.148438 362.023438 111.65625 354.917969 94.152344 C 347.5625 76.027344 336.753906 59.765625 322.800781 45.808594 C 319.660156 42.671875 314.574219 42.671875 311.433594 45.808594 C 308.296875 48.949219 308.296875 54.035156 311.433594 57.175781 C 362.132812 107.871094 362.132812 190.355469 311.433594 241.050781 C 308.296875 244.191406 308.296875 249.277344 311.433594 252.417969 C 313.003906 253.988281 315.0625 254.773438 317.117188 254.773438 C 319.175781 254.773438 321.230469 253.988281 322.800781 252.417969 C 336.753906 238.464844 347.5625 222.199219 354.917969 204.074219 C 362.023438 186.570312 365.625 168.078125 365.625 149.113281"/></g><g clip-path="url(#a)" id="change1_1"><path d="M 392.941406 74.125 C 382.902344 49.398438 368.160156 27.210938 349.121094 8.167969 C 345.984375 5.03125 340.894531 5.03125 337.757812 8.167969 C 334.617188 11.308594 334.617188 16.394531 337.757812 19.535156 C 409.207031 90.984375 409.207031 207.242188 337.757812 278.691406 C 334.617188 281.832031 334.617188 286.921875 337.757812 290.058594 C 339.324219 291.628906 341.382812 292.414062 343.4375 292.414062 C 345.496094 292.414062 347.550781 291.628906 349.121094 290.058594 C 368.160156 271.019531 382.902344 248.828125 392.941406 224.101562 C 402.632812 200.21875 407.546875 174.988281 407.546875 149.113281 C 407.546875 123.238281 402.632812 98.007812 392.941406 74.125"/></g></g></svg>