<?xml version="1.0" encoding="UTF-8" standalone="no"?><svg xmlns="http://www.w3.org/2000/svg" xmlns:xlink="http://www.w3.org/1999/xlink" fill="#ffffff" height="480.7" preserveAspectRatio="xMidYMid meet" version="1" viewBox="16.0 15.3 481.1 480.7" width="481.1" zoomAndPan="magnify"><g><g id="change1_1"><path d="M256,32c7.7,0,15.5,0.4,23.2,1.2l1.6-15.9c-8.2-0.8-16.5-1.3-24.8-1.3c-13.9,0-27.8,1.2-41.4,3.6l2.7,15.8 C230,33.1,243,32,256,32z" fill="inherit"/><path d="M124.7,74.5l-9.4-13c-30.1,21.8-55.1,50.7-72.2,83.6C25.4,179.1,16,217.4,16,256c0,37.4,8.4,73.2,24.8,106.4l14.3-7.1 C39.8,324.3,32,290.9,32,256c0-36,8.7-71.8,25.3-103.5C73.3,121.8,96.6,94.9,124.7,74.5z" fill="inherit"/><path d="M263.7,479.9l0.5,16c22.6-0.8,44.9-4.7,66.2-11.6l-5-15.2C305.6,475.5,284.8,479.2,263.7,479.9z" fill="inherit"/><path d="M491.5,263.7l-144.2-69.4c-11.9-5.7-26.3-0.7-32,11.2L272,295.5V216c0-22.1-17.9-40-40-40h-32V48c0-17.6-14.4-32-32-32 s-32,14.4-32,32v128h-32c-22.1,0-40,17.9-40,40v208c0,17.3,11,32,26.4,37.6c-1.5,3.1-2.4,6.7-2.4,10.4c0,13.2,10.8,24,24,24 s24-10.8,24-24c0-2.8-0.5-5.5-1.4-8h66.8c-0.9,2.5-1.4,5.2-1.4,8c0,13.2,10.8,24,24,24s24-10.8,24-24c0-3.7-0.9-7.2-2.4-10.4 c12.7-4.6,22.3-15.4,25.4-28.7l113,54.3c1.1,0.5,2.3,0.8,3.5,0.8c3,0,5.8-1.7,7.2-4.5l100.6-209.1 C497.1,270.4,495.4,265.6,491.5,263.7z M112,480c-4.4,0-8-3.6-8-8s3.6-8,8-8s8,3.6,8,8S116.4,480,112,480z M128,432h-16V248h16 V432z M176,432h-16V248h16V432z M184,176h-32V48c0-8.8,7.2-16,16-16s16,7.2,16,16V176z M208,248h16v184h-16V248z M224,480 c-4.4,0-8-3.6-8-8s3.6-8,8-8s8,3.6,8,8S228.4,480,224,480z M383.7,469.3l-137-65.9c-1.9-0.9-3.4-2.5-4.1-4.6 c-0.7-2-0.6-4.2,0.3-6.1l76.9-159.8c1.9,1.9,4.1,3.5,6.6,4.7l137,65.9L383.7,469.3z" fill="inherit"/><path d="M309.7,309.4c-6.5,13.5-7.3,28.7-2.4,42.8c4.9,14.1,15.1,25.5,28.6,31.9c7.8,3.8,16.1,5.5,24.2,5.5 c20.9,0,40.9-11.7,50.6-31.7c13.4-27.8,1.6-61.4-26.2-74.7C356.6,269.9,323.1,281.6,309.7,309.4z M349.2,359.2l-2.1,1.6l0-2.7 c-0.1-7,1-13.9,3.2-20.4l12.9,6.2C359.4,349.8,354.7,354.9,349.2,359.2z M389.2,306.2c9.3,9.8,13.1,23.9,9.7,37.3l-14.3-6.9 c3.2-8.8,4.8-18.1,4.6-27.6L389.2,306.2z M392,357.9c-8.3,11-21.7,16.8-35.2,15.7l2.2-1.7c7.5-5.8,13.8-12.9,18.7-20.9L392,357.9z M371.1,308.2l2.1-1.6l0,2.7c0.1,7-1,13.9-3.2,20.4l-12.9-6.2C360.9,317.6,365.6,312.5,371.1,308.2z M360.2,293.7 c1.1,0,2.2,0.1,3.3,0.1l-2.2,1.7c-7.5,5.8-13.8,12.9-18.7,20.9l-14.3-6.9C336,299.4,347.9,293.7,360.2,293.7z M335.7,330.8 c-3.2,8.8-4.8,18.1-4.6,27.6l0,2.8c-3.8-4-6.8-8.9-8.7-14.3c-2.6-7.5-3-15.5-1-23L335.7,330.8z" fill="inherit"/><path d="M314 373H330V453H314z" fill="inherit" transform="rotate(-64.311 321.99 413)"/><path d="M361.7,126.3c-9.7-9.7-25.6-9.7-35.3,0c-3.5,3.5-9.2,3.5-12.7,0l-2-2c-21.9-21.9-57.4-21.9-79.3,0 c-4.4,4.4-10.2,6.8-16.3,6.8v16c10.4,0,20.3-4.1,27.7-11.5c15.6-15.6,41.1-15.6,56.7,0l2,2c9.7,9.7,25.6,9.7,35.3,0 c3.5-3.5,9.2-3.5,12.7,0l14.7,14.7c29,29,67.1,45.7,107.8,47.4c3.4,13.3,5.6,26.8,6.6,40.7l16-1.1c-2.2-31.9-10.5-62.5-24.8-91 l-14.3,7.2c4.6,9.1,8.5,18.4,11.7,27.9c-34.6-2.8-66.8-17.6-91.6-42.4L361.7,126.3z" fill="inherit"/><path d="M291.8,54.8l133.2,81.4c3.9,2.4,8.2,3.5,12.5,3.5c6.2,0,12.3-2.4,17-7l31.1-31.1c1.5-1.5,2.3-3.5,2.3-5.7 s-0.8-4.2-2.3-5.7l-16-16c-2.7-2.7-6.9-3.1-10.1-1l-19.6,13L403.5,62l18.9-25.2c2.4-3.2,2.1-7.6-0.7-10.5l-8-8 c-2.4-2.4-6.2-3-9.2-1.5l-44.1,22L345.5,30c-15.8-9.5-35.9-7-48.9,6l-6.3,6.3c-1.7,1.7-2.6,4.2-2.3,6.6 C288.3,51.4,289.7,53.5,291.8,54.8z" fill="inherit"/></g></g></svg>