<?xml version="1.0" encoding="UTF-8" standalone="no"?><svg xmlns="http://www.w3.org/2000/svg" xmlns:xlink="http://www.w3.org/1999/xlink" fill="#ffffff" height="98" preserveAspectRatio="xMidYMid meet" version="1" viewBox="0.0 15.0 128.0 98.0" width="128" zoomAndPan="magnify"><g id="change1_1"><path d="M105.4,56.8C104.6,57.8,97,67.5,97,73c0,6.1,4.5,11,10,11s10-4.9,10-11c0-5.5-7.6-15.2-8.4-16.2 C107.8,55.8,106.2,55.8,105.4,56.8z M107,80c-3.3,0-6-3.1-6-7c0-2.6,3.2-7.9,6-11.7c2.8,3.8,6,9.1,6,11.7C113,76.9,110.3,80,107,80z"/></g><g id="change1_2"><path d="M105,76c0,1.1,0.9,2,2,2c2.2,0,4-1.8,4-4c0-1.1-0.9-2-2-2s-2,0.9-2,2C105.9,74,105,74.9,105,76z"/></g><g id="change1_3"><path d="M107,49c-11.6,0-21,9.4-21,21s9.4,21,21,21s21-9.4,21-21S118.6,49,107,49z M107,87c-9.4,0-17-7.6-17-17s7.6-17,17-17 s17,7.6,17,17S116.4,87,107,87z"/></g><g id="change1_4"><path d="M64,15c-14.3,0-26,11.7-26,26s11.7,26,26,26s26-11.7,26-26S78.3,15,64,15z M64,63c-12.1,0-22-9.9-22-22s9.9-22,22-22 s22,9.9,22,22S76.1,63,64,63z"/></g><g id="change1_5"><path d="M65.1,26.3L65.1,26.3c-0.1,0-0.1-0.1-0.1-0.1c-0.1,0-0.2-0.1-0.2-0.1c-0.1,0-0.1,0-0.2-0.1c-0.1,0-0.1,0-0.2-0.1 c-0.1,0-0.1,0-0.2,0c-0.1,0-0.1,0-0.2,0c-0.1,0-0.1,0-0.2,0c-0.1,0-0.1,0-0.2,0c-0.1,0-0.1,0-0.2,0.1c-0.1,0-0.1,0-0.2,0.1 c-0.1,0-0.2,0.1-0.2,0.1c0,0-0.1,0-0.1,0.1l0,0c0,0,0,0,0,0l-17,11c-0.9,0.6-1.2,1.8-0.6,2.8c0.4,0.6,1,0.9,1.7,0.9 c0.4,0,0.7-0.1,1.1-0.3l2.9-1.9V53c0,1.1,0.9,2,2,2h7h8h7c1.1,0,2-0.9,2-2V38.8l2.9,1.9c0.3,0.2,0.7,0.3,1.1,0.3 c0.7,0,1.3-0.3,1.7-0.9c0.6-0.9,0.3-2.2-0.6-2.8L65.1,26.3C65.1,26.3,65.1,26.3,65.1,26.3z M62,51v-6h4v6H62z M73,37v14h-3v-8 c0-1.1-0.9-2-2-2h-8c-1.1,0-2,0.9-2,2v8h-3V37c0-0.2-0.1-0.5-0.1-0.7l9.1-5.9l9.1,5.9C73.1,36.5,73,36.8,73,37z"/></g><g id="change1_6"><path d="M21,49C9.4,49,0,58.4,0,70s9.4,21,21,21s21-9.4,21-21S32.6,49,21,49z M21,87c-9.4,0-17-7.6-17-17s7.6-17,17-17s17,7.6,17,17 S30.4,87,21,87z"/></g><g id="change1_7"><path d="M28,69.9c0-0.1,0-0.1,0-0.2c0-0.1,0-0.1-0.1-0.2c0-0.1,0-0.1-0.1-0.2c0-0.1-0.1-0.1-0.1-0.2c0-0.1-0.1-0.1-0.1-0.2 c0-0.1-0.1-0.1-0.1-0.2c0,0-0.1-0.1-0.1-0.1c0-0.1-0.1-0.1-0.2-0.1c0,0-0.1-0.1-0.1-0.1c-0.1,0-0.1-0.1-0.2-0.1c0,0-0.1,0-0.1-0.1 c0,0,0,0,0,0c-0.1,0-0.2-0.1-0.2-0.1c-0.1,0-0.1,0-0.2,0c-0.1,0-0.1,0-0.2,0c-0.1,0-0.2,0-0.2,0c0,0,0,0,0,0h-6.9l3.7-8.2 c0.5-1,0-2.2-1-2.6c-1-0.5-2.2,0-2.6,1l-5,11c0,0,0,0,0,0c0,0.1-0.1,0.2-0.1,0.2c0,0,0,0.1,0,0.1c0,0.1,0,0.1,0,0.2 c0,0.1,0,0.1,0,0.2c0,0,0,0,0,0c0,0.1,0,0.1,0,0.1c0,0.1,0,0.1,0,0.2c0,0.1,0,0.1,0.1,0.2c0,0.1,0,0.1,0.1,0.2 c0,0.1,0.1,0.1,0.1,0.2c0,0.1,0.1,0.1,0.1,0.2c0,0.1,0.1,0.1,0.1,0.2c0,0,0.1,0.1,0.1,0.1c0,0.1,0.1,0.1,0.2,0.1 c0,0,0.1,0.1,0.1,0.1c0.1,0,0.1,0.1,0.2,0.1c0,0,0.1,0,0.1,0.1c0,0,0,0,0,0c0.1,0,0.2,0.1,0.3,0.1c0,0,0.1,0,0.1,0 c0.1,0,0.2,0,0.2,0c0.1,0,0.1,0,0.2,0c0,0,0,0,0,0h6.9l-3.7,8.2c-0.5,1,0,2.2,1,2.6c0.3,0.1,0.5,0.2,0.8,0.2c0.8,0,1.5-0.4,1.8-1.2 l5-11c0,0,0,0,0,0c0-0.1,0.1-0.2,0.1-0.2c0,0,0-0.1,0-0.1c0-0.1,0-0.1,0-0.2c0-0.1,0-0.1,0-0.2c0,0,0,0,0,0C28,69.9,28,69.9,28,69.9 z"/></g><g id="change1_8"><path d="M64,71c-11.6,0-21,9.4-21,21s9.4,21,21,21s21-9.4,21-21S75.6,71,64,71z M64,109c-9.4,0-17-7.6-17-17s7.6-17,17-17 s17,7.6,17,17S73.4,109,64,109z"/></g><g id="change1_9"><path d="M72.7,82.3c0,0,0-0.1,0.1-0.1c0-0.1,0.1-0.1,0.1-0.2c0-0.1,0-0.1,0.1-0.2c0-0.1,0-0.1,0.1-0.2c0-0.1,0-0.1,0-0.2 c0-0.1,0-0.1,0-0.2c0,0,0-0.1,0-0.1c0,0,0-0.1,0-0.1c0-0.1,0-0.1,0-0.2c0-0.1,0-0.1,0-0.2c0-0.1,0-0.1-0.1-0.2c0-0.1,0-0.1-0.1-0.2 c0-0.1-0.1-0.1-0.1-0.2c0-0.1-0.1-0.1-0.1-0.2c0-0.1-0.1-0.1-0.1-0.1c0-0.1-0.1-0.1-0.1-0.2c0,0,0,0-0.1-0.1c0,0,0,0-0.1,0 c-0.1,0-0.1-0.1-0.2-0.1c-0.1,0-0.1-0.1-0.2-0.1c-0.1,0-0.1-0.1-0.2-0.1c-0.1,0-0.1,0-0.2-0.1c-0.1,0-0.1,0-0.2,0 c-0.1,0-0.1,0-0.2,0c0,0-0.1,0-0.1,0c-0.1,0-0.2,0-0.4,0c-6.1,0-11.9,3.3-14.4,8.2c-2.1,4-1.7,8.5,1,12.3c-0.2,1.1-0.3,2.1-0.3,3.2 c0,1.1,0.9,2,2,2s2-0.9,2-2c0-0.5,0-1,0.1-1.5c4.4-0.1,7.5-1.1,9.4-3.2c2.9-3.1,2.4-7.5,2-11c-0.2-1.7-0.5-4.1,0.1-4.7 C72.6,82.4,72.6,82.3,72.7,82.3z M67.6,95.4c-1,1.1-2.9,1.7-5.5,1.9c0.9-2.3,2.4-4.4,4.3-5.8c0.9-0.7,1.1-1.9,0.4-2.8 c-0.7-0.9-1.9-1.1-2.8-0.4c-2,1.5-3.7,3.6-4.9,5.9c-0.4-2,0.1-3.7,0.7-5c1.5-2.9,4.8-5.1,8.5-5.8c-0.1,1.3,0.1,2.7,0.2,4.2 C68.9,90.5,69.2,93.6,67.6,95.4z"/></g></svg>